<svg xmlns="http://www.w3.org/2000/svg" width="434" height="252" viewBox="0 0 434 252" version="1.1"><path d="M 265.275 21.539 C 262.400 22.313, 257.440 24.263, 254.251 25.873 L 248.454 28.800 240.977 26.164 C 234.285 23.805, 232.082 23.532, 220 23.564 C 207.859 23.597, 205.746 23.875, 199.012 26.323 C 188.749 30.053, 181.966 34.333, 174.139 42.018 C 166.447 49.570, 160.862 58.578, 157.718 68.500 C 155.890 74.269, 155.505 77.785, 155.531 88.500 C 155.558 99.822, 155.892 102.440, 158.116 108.784 L 160.670 116.068 157.903 121.877 C 154.236 129.576, 151.687 139.686, 152.363 143.851 C 153.622 151.608, 160.849 156.699, 168.891 155.495 C 174.604 154.639, 182.006 152.207, 184 150.530 C 184.825 149.836, 186.726 148.978, 188.224 148.622 C 192.247 147.666, 213.033 133.409, 224.500 123.739 C 240.780 110.011, 258.477 90.828, 269.882 74.547 L 273.867 68.858 275.033 72.679 C 277.354 80.279, 277.401 92.977, 275.142 101.909 C 272.439 112.599, 268.218 119.895, 259.884 128.281 C 249.818 138.410, 236.827 143.947, 220.101 145.238 C 216.046 145.551, 213.956 148.115, 215.607 150.750 C 217.841 154.314, 231.934 153.229, 243.802 148.577 C 257.967 143.026, 271.604 130.609, 278.517 116.966 C 286.214 101.777, 287.247 79.073, 280.912 64.294 L 279.084 60.030 282.570 52.689 C 284.488 48.652, 286.567 42.602, 287.191 39.246 C 288.171 33.979, 288.082 32.503, 286.541 28.468 C 285.090 24.669, 283.981 23.441, 280.628 21.918 C 275.764 19.710, 272.377 19.626, 265.275 21.539 M 270 28.699 C 264.115 29.683, 253.801 35, 257.777 35 C 258.205 35, 260.005 36.325, 261.777 37.944 C 265.467 41.314, 265.922 44.436, 262.953 46.025 C 261.236 46.944, 260.075 46.523, 255.744 43.412 C 236.705 29.733, 215.137 27.414, 195.329 36.913 C 174.362 46.969, 161.624 69.017, 163.331 92.297 C 164.382 106.620, 169.735 117.906, 180.537 128.569 C 184.584 132.564, 188.793 136.117, 189.891 136.465 C 192.793 137.387, 197.993 134.328, 210.500 124.342 C 244.124 97.497, 272.402 62.621, 278.523 40.450 C 280.294 34.033, 279.452 29, 276.607 29 C 275.813 29, 274.564 28.838, 273.832 28.640 C 273.099 28.443, 271.375 28.469, 270 28.699 M 163.199 130.750 C 160.457 138.459, 159.862 143.429, 161.425 145.567 C 162.474 147.001, 163.741 147.211, 168.671 146.764 C 174.755 146.212, 183.947 142.424, 182.369 141.119 C 181.891 140.724, 179.381 138.720, 176.791 136.666 C 174.201 134.613, 170.826 131.158, 169.291 128.988 C 167.756 126.818, 166.217 125.033, 165.872 125.021 C 165.526 125.010, 164.324 127.588, 163.199 130.750 M 114 197 L 114 218 118.500 218 L 123 218 123 211.640 L 123 205.280 128.387 204.724 C 138.566 203.673, 143.989 198.611, 143.996 190.154 C 144.001 184.678, 141.721 180.774, 136.954 178.094 C 133.890 176.372, 131.519 176, 123.614 176 L 114 176 114 197 M 320.390 177.427 C 320.088 178.212, 319.990 179.900, 320.171 181.177 C 320.447 183.123, 321.177 183.549, 324.666 183.803 C 328.136 184.056, 328.940 183.764, 329.483 182.053 C 330.757 178.041, 329.212 176, 324.901 176 C 322.390 176, 320.737 176.523, 320.390 177.427 M 123 190.500 L 123 196 127 196 C 129.667 196, 131.667 195.333, 133 194 C 135.407 191.593, 135.501 190.160, 133.443 187.223 C 132.232 185.493, 130.901 185, 127.443 185 L 123 185 123 190.500 M 56.750 188.572 C 55.157 189.436, 54 189.630, 54 189.032 C 54 188.464, 51.975 188, 49.500 188 L 45 188 45 209 L 45 230 49.500 230 L 54 230 54 223 C 54 216.026, 54.528 214.928, 56.792 217.192 C 57.448 217.848, 60.160 218.385, 62.818 218.385 C 71.487 218.385, 77 212.111, 77 202.247 C 77 191.245, 65.784 183.671, 56.750 188.572 M 162.228 188.093 C 160.978 188.566, 159.665 189.710, 159.309 190.636 C 158.749 192.096, 158.556 192.032, 157.864 190.160 C 157.226 188.436, 156.251 188, 153.032 188 L 149 188 149 203.057 L 149 218.115 153.250 217.807 L 157.500 217.500 157.754 210.500 C 158.121 200.411, 158.563 199.209, 162.518 197.557 C 165.670 196.240, 166 195.723, 166 192.110 C 166 187.536, 165.398 186.895, 162.228 188.093 M 178.643 188.028 C 166.932 191.537, 165.051 210.037, 175.768 216.297 C 179.522 218.489, 188.438 218.881, 192.073 217.013 C 194.884 215.569, 197.946 212.062, 197.978 210.250 C 198.009 208.496, 191.986 208.662, 188.265 210.518 C 185.049 212.122, 180.399 211.224, 178.786 208.687 C 177.248 206.270, 178.224 206, 188.500 206 L 199 206 199 201.648 C 199 191.418, 189.203 184.864, 178.643 188.028 M 209.329 188.458 C 205.550 190.102, 204 192.661, 204 197.260 C 204 201.789, 207.173 204.629, 213.829 206.057 C 217.870 206.923, 219.036 207.578, 218.795 208.845 C 218.376 211.042, 214.657 211.497, 213.040 209.548 C 212.284 208.638, 210.158 208, 207.878 208 C 204.425 208, 204 208.270, 204 210.460 C 204 213.201, 208.481 217.937, 211.240 218.111 C 219.313 218.621, 222.702 218.005, 225.354 215.548 C 230.565 210.719, 228.203 201.968, 221.275 200.438 C 215.316 199.122, 213.488 198.271, 213.177 196.667 C 212.757 194.504, 217.237 194.376, 219 196.500 C 220.357 198.135, 226.535 198.562, 227.448 197.084 C 228.535 195.326, 226.025 190.986, 222.775 189.004 C 218.987 186.695, 213.860 186.487, 209.329 188.458 M 241.271 188.964 C 235.572 191.551, 233.009 195.931, 233.004 203.089 C 232.998 211.848, 237.588 216.896, 247.047 218.533 C 253.200 219.597, 262 214.596, 262 210.035 C 262 208.488, 255.640 208.787, 252.364 210.487 C 250.789 211.305, 248.600 211.702, 247.500 211.369 C 245.189 210.669, 242 208.066, 242 206.879 C 242 206.433, 246.838 205.940, 252.750 205.784 L 263.500 205.500 263.310 203 C 262.688 194.792, 260.311 190.940, 254.282 188.371 C 249.922 186.513, 246.306 186.678, 241.271 188.964 M 283 187.765 C 282.175 188.038, 280.712 188.947, 279.750 189.785 C 278.174 191.158, 278 191.145, 278 189.655 C 278 188.360, 277.021 188, 273.500 188 L 269 188 269 203.057 L 269 218.115 273.250 217.807 L 277.500 217.500 278 208.500 L 278.500 199.500 282.250 197.668 C 285.619 196.022, 286 195.443, 286 191.977 C 286 187.850, 285.380 186.979, 283 187.765 M 342.708 189.090 C 337.629 191.770, 335.008 196.280, 335.004 202.349 C 334.996 212.252, 340.949 218.439, 350.465 218.417 C 356.078 218.405, 359.829 216.453, 363.119 211.833 C 364.256 210.236, 364.934 208.270, 364.625 207.465 C 363.807 205.333, 358.260 205.651, 355.273 208 C 353.874 209.100, 351.666 210, 350.365 210 C 344.599 210, 341.546 200.832, 346.223 197.557 C 349.042 195.582, 353.385 195.554, 355 197.500 C 356.743 199.600, 365 199.571, 365 197.465 C 365 194.766, 361.810 190.944, 357.887 188.942 C 353.058 186.479, 347.554 186.532, 342.708 189.090 M 374.975 189.250 C 371.096 191.878, 368.982 196.741, 371.128 198.100 C 373.417 199.550, 376.567 199.110, 379 197 C 381.687 194.670, 381.560 194.694, 384.066 196.035 C 385.167 196.624, 386 198.121, 386 199.510 C 386 201.716, 385.754 201.857, 383.435 200.975 C 372.304 196.743, 363.195 208.580, 371.694 216.232 C 374.270 218.552, 380.086 219.187, 383.332 217.503 C 384.870 216.705, 386.206 216.524, 386.542 217.068 C 386.859 217.581, 388.891 218, 391.059 218 L 395 218 395 207.649 C 395 194.716, 393.966 191.533, 388.929 188.964 C 383.866 186.381, 379.065 186.479, 374.975 189.250 M 80 189.070 C 80 189.658, 81.304 193.370, 82.897 197.320 C 90.845 217.022, 90.844 217.016, 88.905 222.525 C 86.276 229.998, 86.336 230.152, 91.725 229.805 L 96.451 229.500 102.651 210.500 C 106.062 200.050, 108.885 190.713, 108.926 189.750 C 108.986 188.340, 108.154 188, 104.646 188 L 100.291 188 97.903 195.909 C 96.590 200.259, 95.240 203.648, 94.903 203.440 C 94.566 203.232, 93.054 199.673, 91.544 195.531 L 88.797 188 84.399 188 C 81.942 188, 80 188.472, 80 189.070 M 287 188.843 C 287 189.927, 290.430 199.904, 292.278 204.197 C 293.060 206.014, 294.570 209.750, 295.634 212.500 C 297.539 217.427, 297.630 217.500, 301.874 217.500 L 306.180 217.500 311.090 204.157 C 313.790 196.819, 316 190.181, 316 189.407 C 316 188.414, 314.724 188, 311.658 188 L 307.315 188 304.539 197.049 C 301.819 205.918, 301.736 206.045, 300.382 203.435 C 299.622 201.970, 299 200.229, 299 199.567 C 299 198.905, 298.308 196.031, 297.461 193.182 L 295.923 188 291.461 188 C 289.008 188, 287 188.380, 287 188.843 M 320.438 189.300 C 320.164 190.016, 320.065 196.653, 320.220 204.050 L 320.500 217.500 324.750 217.807 L 329 218.115 329.067 213.307 C 329.104 210.663, 329.361 204.946, 329.638 200.603 C 330.361 189.292, 329.880 188, 324.950 188 C 322.579 188, 320.733 188.532, 320.438 189.300 M 59.259 195.774 C 54.338 196.571, 52.283 204.283, 56 208 C 58.554 210.554, 64.106 210.645, 66.345 208.171 C 67.255 207.165, 68 204.760, 68 202.826 C 68 197.916, 64.327 194.953, 59.259 195.774 M 179.655 196.829 C 178.745 197.835, 178 198.960, 178 199.329 C 178 199.698, 180.700 200, 184 200 C 188.256 200, 190 199.622, 190 198.700 C 190 194.909, 182.603 193.571, 179.655 196.829 M 243.861 196.914 C 242.562 197.967, 241.785 199.114, 242.134 199.465 C 242.483 199.815, 245.633 199.966, 249.134 199.801 L 255.500 199.500 253.250 197.250 C 250.495 194.495, 246.998 194.370, 243.861 196.914 M 378 209.500 C 378 211.917, 378.292 212.097, 381.750 211.810 C 384.730 211.564, 385.500 211.089, 385.500 209.500 C 385.500 207.911, 384.730 207.436, 381.750 207.190 C 378.292 206.903, 378 207.083, 378 209.500" stroke="none" fill="#f1d4b7" fill-rule="evenodd"/><path d="M 0 126.002 L 0 252.005 217.250 251.752 L 434.500 251.500 434.754 125.750 L 435.008 0 217.504 0 L 0 0 0 126.002 M 0.485 126.500 C 0.485 195.800, 0.604 224.003, 0.750 189.172 C 0.896 154.342, 0.896 97.642, 0.750 63.172 C 0.604 28.703, 0.485 57.200, 0.485 126.500 M 265.275 21.539 C 262.400 22.313, 257.440 24.263, 254.251 25.873 L 248.454 28.800 240.977 26.164 C 234.285 23.805, 232.082 23.532, 220 23.564 C 207.859 23.597, 205.746 23.875, 199.012 26.323 C 188.749 30.053, 181.966 34.333, 174.139 42.018 C 166.447 49.570, 160.862 58.578, 157.718 68.500 C 155.890 74.269, 155.505 77.785, 155.531 88.500 C 155.558 99.822, 155.892 102.440, 158.116 108.784 L 160.670 116.068 157.903 121.877 C 154.236 129.576, 151.687 139.686, 152.363 143.851 C 153.622 151.608, 160.849 156.699, 168.891 155.495 C 174.604 154.639, 182.006 152.207, 184 150.530 C 184.825 149.836, 186.726 148.978, 188.224 148.622 C 192.247 147.666, 213.033 133.409, 224.500 123.739 C 240.780 110.011, 258.477 90.828, 269.882 74.547 L 273.867 68.858 275.033 72.679 C 277.354 80.279, 277.401 92.977, 275.142 101.909 C 272.439 112.599, 268.218 119.895, 259.884 128.281 C 249.818 138.410, 236.827 143.947, 220.101 145.238 C 216.046 145.551, 213.956 148.115, 215.607 150.750 C 217.841 154.314, 231.934 153.229, 243.802 148.577 C 257.967 143.026, 271.604 130.609, 278.517 116.966 C 286.214 101.777, 287.247 79.073, 280.912 64.294 L 279.084 60.030 282.570 52.689 C 284.488 48.652, 286.567 42.602, 287.191 39.246 C 288.171 33.979, 288.082 32.503, 286.541 28.468 C 285.090 24.669, 283.981 23.441, 280.628 21.918 C 275.764 19.710, 272.377 19.626, 265.275 21.539 M 270 28.699 C 264.115 29.683, 253.801 35, 257.777 35 C 258.205 35, 260.005 36.325, 261.777 37.944 C 265.467 41.314, 265.922 44.436, 262.953 46.025 C 261.236 46.944, 260.075 46.523, 255.744 43.412 C 236.705 29.733, 215.137 27.414, 195.329 36.913 C 174.362 46.969, 161.624 69.017, 163.331 92.297 C 164.382 106.620, 169.735 117.906, 180.537 128.569 C 184.584 132.564, 188.793 136.117, 189.891 136.465 C 192.793 137.387, 197.993 134.328, 210.500 124.342 C 244.124 97.497, 272.402 62.621, 278.523 40.450 C 280.294 34.033, 279.452 29, 276.607 29 C 275.813 29, 274.564 28.838, 273.832 28.640 C 273.099 28.443, 271.375 28.469, 270 28.699 M 163.199 130.750 C 160.457 138.459, 159.862 143.429, 161.425 145.567 C 162.474 147.001, 163.741 147.211, 168.671 146.764 C 174.755 146.212, 183.947 142.424, 182.369 141.119 C 181.891 140.724, 179.381 138.720, 176.791 136.666 C 174.201 134.613, 170.826 131.158, 169.291 128.988 C 167.756 126.818, 166.217 125.033, 165.872 125.021 C 165.526 125.010, 164.324 127.588, 163.199 130.750 M 114 197 L 114 218 118.500 218 L 123 218 123 211.640 L 123 205.280 128.387 204.724 C 138.566 203.673, 143.989 198.611, 143.996 190.154 C 144.001 184.678, 141.721 180.774, 136.954 178.094 C 133.890 176.372, 131.519 176, 123.614 176 L 114 176 114 197 M 320.390 177.427 C 320.088 178.212, 319.990 179.900, 320.171 181.177 C 320.447 183.123, 321.177 183.549, 324.666 183.803 C 328.136 184.056, 328.940 183.764, 329.483 182.053 C 330.757 178.041, 329.212 176, 324.901 176 C 322.390 176, 320.737 176.523, 320.390 177.427 M 123 190.500 L 123 196 127 196 C 129.667 196, 131.667 195.333, 133 194 C 135.407 191.593, 135.501 190.160, 133.443 187.223 C 132.232 185.493, 130.901 185, 127.443 185 L 123 185 123 190.500 M 56.750 188.572 C 55.157 189.436, 54 189.630, 54 189.032 C 54 188.464, 51.975 188, 49.500 188 L 45 188 45 209 L 45 230 49.500 230 L 54 230 54 223 C 54 216.026, 54.528 214.928, 56.792 217.192 C 57.448 217.848, 60.160 218.385, 62.818 218.385 C 71.487 218.385, 77 212.111, 77 202.247 C 77 191.245, 65.784 183.671, 56.750 188.572 M 162.228 188.093 C 160.978 188.566, 159.665 189.710, 159.309 190.636 C 158.749 192.096, 158.556 192.032, 157.864 190.160 C 157.226 188.436, 156.251 188, 153.032 188 L 149 188 149 203.057 L 149 218.115 153.250 217.807 L 157.500 217.500 157.754 210.500 C 158.121 200.411, 158.563 199.209, 162.518 197.557 C 165.670 196.240, 166 195.723, 166 192.110 C 166 187.536, 165.398 186.895, 162.228 188.093 M 178.643 188.028 C 166.932 191.537, 165.051 210.037, 175.768 216.297 C 179.522 218.489, 188.438 218.881, 192.073 217.013 C 194.884 215.569, 197.946 212.062, 197.978 210.250 C 198.009 208.496, 191.986 208.662, 188.265 210.518 C 185.049 212.122, 180.399 211.224, 178.786 208.687 C 177.248 206.270, 178.224 206, 188.500 206 L 199 206 199 201.648 C 199 191.418, 189.203 184.864, 178.643 188.028 M 209.329 188.458 C 205.550 190.102, 204 192.661, 204 197.260 C 204 201.789, 207.173 204.629, 213.829 206.057 C 217.870 206.923, 219.036 207.578, 218.795 208.845 C 218.376 211.042, 214.657 211.497, 213.040 209.548 C 212.284 208.638, 210.158 208, 207.878 208 C 204.425 208, 204 208.270, 204 210.460 C 204 213.201, 208.481 217.937, 211.240 218.111 C 219.313 218.621, 222.702 218.005, 225.354 215.548 C 230.565 210.719, 228.203 201.968, 221.275 200.438 C 215.316 199.122, 213.488 198.271, 213.177 196.667 C 212.757 194.504, 217.237 194.376, 219 196.500 C 220.357 198.135, 226.535 198.562, 227.448 197.084 C 228.535 195.326, 226.025 190.986, 222.775 189.004 C 218.987 186.695, 213.860 186.487, 209.329 188.458 M 241.271 188.964 C 235.572 191.551, 233.009 195.931, 233.004 203.089 C 232.998 211.848, 237.588 216.896, 247.047 218.533 C 253.200 219.597, 262 214.596, 262 210.035 C 262 208.488, 255.640 208.787, 252.364 210.487 C 250.789 211.305, 248.600 211.702, 247.500 211.369 C 245.189 210.669, 242 208.066, 242 206.879 C 242 206.433, 246.838 205.940, 252.750 205.784 L 263.500 205.500 263.310 203 C 262.688 194.792, 260.311 190.940, 254.282 188.371 C 249.922 186.513, 246.306 186.678, 241.271 188.964 M 283 187.765 C 282.175 188.038, 280.712 188.947, 279.750 189.785 C 278.174 191.158, 278 191.145, 278 189.655 C 278 188.360, 277.021 188, 273.500 188 L 269 188 269 203.057 L 269 218.115 273.250 217.807 L 277.500 217.500 278 208.500 L 278.500 199.500 282.250 197.668 C 285.619 196.022, 286 195.443, 286 191.977 C 286 187.850, 285.380 186.979, 283 187.765 M 342.708 189.090 C 337.629 191.770, 335.008 196.280, 335.004 202.349 C 334.996 212.252, 340.949 218.439, 350.465 218.417 C 356.078 218.405, 359.829 216.453, 363.119 211.833 C 364.256 210.236, 364.934 208.270, 364.625 207.465 C 363.807 205.333, 358.260 205.651, 355.273 208 C 353.874 209.100, 351.666 210, 350.365 210 C 344.599 210, 341.546 200.832, 346.223 197.557 C 349.042 195.582, 353.385 195.554, 355 197.500 C 356.743 199.600, 365 199.571, 365 197.465 C 365 194.766, 361.810 190.944, 357.887 188.942 C 353.058 186.479, 347.554 186.532, 342.708 189.090 M 374.975 189.250 C 371.096 191.878, 368.982 196.741, 371.128 198.100 C 373.417 199.550, 376.567 199.110, 379 197 C 381.687 194.670, 381.560 194.694, 384.066 196.035 C 385.167 196.624, 386 198.121, 386 199.510 C 386 201.716, 385.754 201.857, 383.435 200.975 C 372.304 196.743, 363.195 208.580, 371.694 216.232 C 374.270 218.552, 380.086 219.187, 383.332 217.503 C 384.870 216.705, 386.206 216.524, 386.542 217.068 C 386.859 217.581, 388.891 218, 391.059 218 L 395 218 395 207.649 C 395 194.716, 393.966 191.533, 388.929 188.964 C 383.866 186.381, 379.065 186.479, 374.975 189.250 M 80 189.070 C 80 189.658, 81.304 193.370, 82.897 197.320 C 90.845 217.022, 90.844 217.016, 88.905 222.525 C 86.276 229.998, 86.336 230.152, 91.725 229.805 L 96.451 229.500 102.651 210.500 C 106.062 200.050, 108.885 190.713, 108.926 189.750 C 108.986 188.340, 108.154 188, 104.646 188 L 100.291 188 97.903 195.909 C 96.590 200.259, 95.240 203.648, 94.903 203.440 C 94.566 203.232, 93.054 199.673, 91.544 195.531 L 88.797 188 84.399 188 C 81.942 188, 80 188.472, 80 189.070 M 287 188.843 C 287 189.927, 290.430 199.904, 292.278 204.197 C 293.060 206.014, 294.570 209.750, 295.634 212.500 C 297.539 217.427, 297.630 217.500, 301.874 217.500 L 306.180 217.500 311.090 204.157 C 313.790 196.819, 316 190.181, 316 189.407 C 316 188.414, 314.724 188, 311.658 188 L 307.315 188 304.539 197.049 C 301.819 205.918, 301.736 206.045, 300.382 203.435 C 299.622 201.970, 299 200.229, 299 199.567 C 299 198.905, 298.308 196.031, 297.461 193.182 L 295.923 188 291.461 188 C 289.008 188, 287 188.380, 287 188.843 M 320.438 189.300 C 320.164 190.016, 320.065 196.653, 320.220 204.050 L 320.500 217.500 324.750 217.807 L 329 218.115 329.067 213.307 C 329.104 210.663, 329.361 204.946, 329.638 200.603 C 330.361 189.292, 329.880 188, 324.950 188 C 322.579 188, 320.733 188.532, 320.438 189.300 M 59.259 195.774 C 54.338 196.571, 52.283 204.283, 56 208 C 58.554 210.554, 64.106 210.645, 66.345 208.171 C 67.255 207.165, 68 204.760, 68 202.826 C 68 197.916, 64.327 194.953, 59.259 195.774 M 179.655 196.829 C 178.745 197.835, 178 198.960, 178 199.329 C 178 199.698, 180.700 200, 184 200 C 188.256 200, 190 199.622, 190 198.700 C 190 194.909, 182.603 193.571, 179.655 196.829 M 243.861 196.914 C 242.562 197.967, 241.785 199.114, 242.134 199.465 C 242.483 199.815, 245.633 199.966, 249.134 199.801 L 255.500 199.500 253.250 197.250 C 250.495 194.495, 246.998 194.370, 243.861 196.914 M 378 209.500 C 378 211.917, 378.292 212.097, 381.750 211.810 C 384.730 211.564, 385.500 211.089, 385.500 209.500 C 385.500 207.911, 384.730 207.436, 381.750 207.190 C 378.292 206.903, 378 207.083, 378 209.500" stroke="none" fill="#2c82ba" fill-rule="evenodd"/></svg>